<svg aria-hidden="true" style="position: absolute; width: 0; height: 0; overflow: hidden;" version="1.1" xmlns="http://www.w3.org/2000/svg" xmlns:xlink="http://www.w3.org/1999/xlink">
<defs>
<symbol id="back-arrow" viewBox="0 0 16 16">
<path d="M16 7H3.83L9.42 1.41L8 0L0 8L8 16L9.41 14.59L3.83 9H16V7Z"  fill="black"/>
</symbol>
<symbol id='arrow-right' viewBox="0 0 24 24">
   <path d="M10 6L8.59 7.41 13.17 12l-4.58 4.59L10 18l6-6z"></path>
</symbol>
<symbol id='arrow-left' viewBox="0 0 24 24">
  <path d="M15.41 7.41L14 6l-6 6 6 6 1.41-1.41L10.83 12z"></path></symbol>
  <symbol id='dandruff' viewBox="0 0 24 24" fill="none">
<path d="M15.5 15H14.71L14.43 14.73C15.41 13.59 16 12.11 16 10.5C16 6.91 13.09 4 9.5 4C5.91 4 3 6.91 3 10.5C3 14.09 5.91 17 9.5 17C11.11 17 12.59 16.41 13.73 15.43L14 15.71V16.5L19 21.49L20.49 20L15.5 15V15ZM9.5 15C7.01 15 5 12.99 5 10.5C5 8.01 7.01 6 9.5 6C11.99 6 14 8.01 14 10.5C14 12.99 11.99 15 9.5 15Z" fill="black" fill-opacity="0.54"/>
  </symbol>
</svg>
